<?xml version="1.0" standalone="no"?>
<!DOCTYPE svg PUBLIC "-//W3C//DTD SVG 20010904//EN"
 "http://www.w3.org/TR/2001/REC-SVG-20010904/DTD/svg10.dtd">
<svg version="1.0" xmlns="http://www.w3.org/2000/svg"
 width="310.000000pt" height="310.000000pt" viewBox="0 0 310.000000 310.000000"
 preserveAspectRatio="xMidYMid meet">
<metadata>
Created by potrace 1.11, written by Peter Selinger 2001-2013
</metadata>
<g transform="translate(0.000000,310.000000) scale(0.100000,-0.100000)"
fill="#000000" stroke="none">
<path d="M1645 3069 c-9 -24 -264 -777 -307 -906 l-40 -123 -294 -2 -294 -3
183 -121 c246 -164 394 -275 607 -459 330 -284 678 -660 905 -977 49 -68 93
-127 98 -133 18 -18 16 -12 -163 560 -45 143 -95 302 -111 354 -16 52 -29 97
-29 101 0 5 57 49 128 98 412 290 767 544 770 552 2 6 -181 10 -485 11 -268 1
-519 4 -557 8 -63 5 -70 8 -77 31 -53 173 -92 300 -99 320 -5 14 -55 174 -111
355 -56 182 -106 334 -110 339 -5 6 -11 3 -14 -5z"/>
<path d="M0 2000 c0 -122 3 -150 14 -150 8 0 54 -15 102 -34 976 -378 1771
-961 2422 -1776 11 -14 24 -21 28 -17 10 9 -8 44 -100 197 -530 886 -1372
1565 -2350 1896 -55 19 -104 34 -108 34 -4 0 -8 -67 -8 -150z"/>
<path d="M0 1646 l0 -113 68 -21 c304 -93 804 -317 1122 -502 408 -237 780
-507 1095 -794 101 -92 141 -126 150 -126 35 0 -412 463 -610 631 -534 452
-1090 775 -1727 1003 l-98 35 0 -113z"/>
</g>
</svg>
